<svg viewBox="0 0 30 8" fill="none" xmlns="http://www.w3.org/2000/svg"><g clip-path="url(#clip0)"><path d="M22.0848 7.81615h-1.5365l2.135-7.710498h1.5365l-2.135 7.710498zM21.2869.347148c-.105-.147-.2695-.2205-.4935-.2205h-8.442l-.4165 1.512002h7.679l-.448 1.6135h-6.1425v-.0035h-1.5365l-1.274 4.6025h1.5365l.854-3.087h6.9055c.217 0 .42-.0735.609-.2205.189-.147.315-.329.3745-.546l.854-3.087002c.0665-.231.0455-.4165-.0595-.5635zM9.31665 7.33315c-.084.3045-.364.518-.679.518H.717155c-.217 0-.378-.0735-.483-.2205-.105-.147-.1295-.329-.0665-.546L2.09965.126648h1.5365L1.91065 6.34265h6.146L9.78216.126648h1.53654L9.31665 7.33315z" fill="#414042"/><path d="M26.873.119629l1.9425 3.864001-4.0845 3.864L26.873.119629z" fill="#098041"/><path d="M25.5078.119965l1.9425 3.863995-4.088 3.864L25.5078.119965z" fill="#E97626"/></g><defs><clipPath id="clip0"><path fill="#fff" d="M0 0h28.8v8H0z"/></clipPath></defs></svg>